<?xml version="1.0" standalone="no"?>
<!DOCTYPE svg PUBLIC "-//W3C//DTD SVG 20010904//EN"
 "http://www.w3.org/TR/2001/REC-SVG-20010904/DTD/svg10.dtd">
<svg version="1.0" xmlns="http://www.w3.org/2000/svg"
 width="700.000000pt" height="700.000000pt" viewBox="0 0 700.000000 700.000000"
 preserveAspectRatio="xMidYMid meet">
<metadata>
Created by potrace 1.14, written by Peter Selinger 2001-2017
</metadata>
<g transform="translate(0.000000,700.000000) scale(0.100000,-0.100000)"
fill="#000000" stroke="none">
<path d="M3454 6982 c-49 -39 -52 -88 -10 -131 65 -65 173 17 131 99 -23 45
-86 62 -121 32z"/>
<path d="M3268 6814 c-38 -20 -58 -62 -46 -94 27 -72 89 -91 139 -41 37 38 38
79 3 115 -15 14 -30 26 -35 26 -4 0 -13 2 -21 5 -7 2 -25 -2 -40 -11z"/>
<path d="M3664 6817 c-38 -21 -49 -41 -49 -84 0 -35 5 -48 25 -63 14 -11 37
-20 51 -20 31 0 77 34 88 64 9 23 -4 69 -24 86 -23 19 -71 28 -91 17z"/>
<path d="M3454 6755 c-19 -19 -23 -31 -18 -48 10 -35 35 -57 63 -57 58 1 85
59 50 105 -26 32 -63 32 -95 0z"/>
<path d="M3458 6613 c-28 -18 -37 -31 -44 -71 -6 -33 54 -93 87 -87 54 10 76
33 85 84 4 24 -23 66 -51 79 -34 16 -44 15 -77 -5z"/>
<path d="M3439 6400 c-118 -35 -187 -172 -143 -280 36 -84 133 -151 214 -146
58 4 89 17 134 57 67 58 88 133 62 221 -34 115 -155 182 -267 148z"/>
<path d="M2895 5975 c-178 -37 -229 -49 -328 -76 -492 -133 -939 -346 -1248
-594 -109 -88 -248 -224 -244 -239 9 -29 230 -710 253 -781 14 -44 27 -82 28
-83 2 -2 28 13 58 33 170 113 242 311 181 495 -32 97 -134 195 -227 221 -20 5
-39 13 -42 18 -3 5 47 62 112 127 375 380 752 605 1337 799 88 30 179 59 203
65 23 6 42 15 42 20 0 13 -50 11 -125 -5z"/>
<path d="M3992 5981 c-9 -5 14 -16 70 -31 95 -25 398 -124 443 -144 17 -8 59
-26 95 -41 268 -112 535 -280 770 -484 78 -68 310 -301 310 -311 0 -3 -23 -16
-51 -30 -108 -51 -198 -163 -218 -271 -29 -162 47 -332 191 -429 33 -22 62
-39 63 -38 2 2 44 143 95 313 51 171 103 344 115 385 13 41 30 98 38 126 l15
51 -71 75 c-40 41 -101 99 -137 129 -35 30 -70 59 -76 65 -60 54 -330 217
-488 293 -147 71 -456 191 -530 207 -11 2 -47 12 -80 23 -103 34 -488 121
-530 121 -6 0 -17 -4 -24 -9z"/>
<path d="M2988 5797 c-259 -132 -507 -316 -739 -549 -147 -148 -207 -242 -267
-413 -42 -119 -49 -281 -16 -360 101 -243 454 -253 566 -17 40 83 34 208 -14
297 -18 33 -101 115 -135 134 l-21 11 20 52 c89 235 225 438 413 616 97 91
232 193 320 240 64 34 62 32 45 42 -26 17 -43 11 -172 -53z"/>
<path d="M3830 5852 c0 -7 27 -29 61 -49 340 -210 595 -520 700 -851 23 -73
23 -74 4 -84 -11 -6 -47 -38 -80 -72 -88 -91 -115 -182 -88 -299 33 -144 147
-231 302 -231 63 1 86 6 133 29 128 63 181 170 174 350 -7 159 -76 315 -215
485 -71 88 -258 269 -361 352 -164 131 -410 280 -560 338 -19 7 -43 20 -52 28
-12 10 -18 11 -18 4z"/>
<path d="M3468 5758 c-12 -10 -45 -107 -72 -213 -2 -5 -6 -17 -9 -25 -32 -82
-185 -658 -202 -765 -35 -211 23 -350 174 -418 70 -32 189 -33 263 -3 142 58
218 190 203 352 -4 37 -9 77 -11 89 -2 11 -7 36 -10 55 -3 19 -8 38 -10 41 -2
4 -6 22 -9 40 -3 19 -17 79 -31 134 -14 55 -29 116 -34 135 -31 132 -166 557
-182 578 -6 6 -20 12 -32 12 -12 0 -29 -6 -38 -12z"/>
<path d="M2768 3955 c-2 -2 -142 -6 -313 -10 -320 -7 -338 -8 -640 -20 -99 -4
-192 -7 -207 -6 -24 1 -28 -2 -28 -26 0 -37 24 -149 45 -210 56 -165 159 -288
300 -358 l80 -40 130 1 c151 1 857 15 898 18 23 2 27 -2 28 -23 0 -14 1 -426
1 -916 0 -717 3 -895 14 -916 64 -126 334 -207 554 -167 122 22 260 100 294
167 11 21 14 154 14 706 0 590 -2 687 -15 730 -18 56 -63 143 -101 195 -42 56
-153 169 -191 192 -26 17 -31 23 -18 27 25 9 692 1 1226 -14 131 -4 136 -3
204 26 78 33 177 100 220 148 62 70 134 209 153 296 19 85 31 155 25 156 -30
6 -161 12 -516 25 -99 3 -236 8 -305 10 -139 5 -1847 13 -1852 9z"/>
<path d="M5712 2679 c-41 -8 -122 -42 -167 -71 -36 -23 -131 -122 -164 -171
-42 -61 -101 -189 -102 -219 -1 -13 6 -58 14 -102 41 -219 -30 -453 -209 -688
-52 -68 -204 -224 -269 -276 -48 -39 -35 -40 79 -7 275 80 618 319 793 553 80
107 178 325 197 437 33 203 20 351 -46 508 -23 52 -32 55 -126 36z"/>
<path d="M1154 2613 c-169 -382 5 -874 426 -1200 166 -129 381 -245 540 -293
52 -15 97 -26 99 -24 2 2 -12 15 -30 30 -19 15 -81 75 -139 133 -189 191 -308
398 -346 601 -13 73 -10 196 7 275 l17 80 -32 75 c-101 236 -283 380 -482 380
-32 0 -36 -4 -60 -57z"/>
<path d="M1215 1431 c33 -120 95 -246 194 -392 289 -431 752 -764 1283 -924
112 -33 291 -74 358 -81 19 -2 44 -5 55 -8 85 -21 518 -29 685 -13 46 5 87 10
90 12 3 1 28 5 57 9 99 12 193 33 353 79 464 133 895 419 1195 792 84 105 157
213 207 306 40 74 88 189 94 227 3 14 7 30 10 36 6 11 -5 -1 -84 -93 -99 -114
-333 -282 -562 -404 -202 -107 -518 -229 -745 -288 -168 -43 -322 -73 -487
-94 -214 -27 -686 -27 -840 0 -13 2 -39 6 -58 9 -163 20 -461 92 -639 152
-455 155 -824 366 -1067 610 l-111 111 12 -46z"/>
</g>
</svg>
