<?xml version="1.0" encoding="utf-8"?>
<!-- Generator: Adobe Illustrator 26.0.1, SVG Export Plug-In . SVG Version: 6.00 Build 0)  -->
<svg version="1.1" id="Layer_1" xmlns="http://www.w3.org/2000/svg" xmlns:xlink="http://www.w3.org/1999/xlink" x="0px" y="0px"
	 width="214.8px" height="45.1px" viewBox="0 0 214.8 45.1" style="enable-background:new 0 0 214.8 45.1;" xml:space="preserve">
<style type="text/css">
	.st0{fill:#E30A18;}
</style>
<path class="st0" d="M66.4,28.5c-0.6,0.8-1.8,0.8-2.8,0.8H62c-0.9,0.1-1.5,0.7-1.5,0.7V22h3c0.3,0,0.7,0,0.9,0
	c0.6,0,1.5,0.2,1.9,0.6c0.7,0.8,0.7,1.8,0.7,2.9v0.1C67,27,66.9,28,66.4,28.5 M70.4,35.9c0-0.8-0.2-1.1-0.2-1.1h-0.6
	c-0.2,0-0.5,0-0.7-0.2c-0.3-0.2-0.4-0.4-0.6-0.8c-0.3-0.4-1.6-2.7-1.6-2.7c1.1-0.3,2-0.8,2.7-2.2c0.4-0.8,0.5-2.1,0.5-3.2
	c0-1.1-0.1-3.3-1.1-4.4c-0.8-0.9-2-1.5-4.5-1.5h-6.6v16.9c0,0,0.4,0.3,1.4,0.3s1.4-0.3,1.4-0.3v-5.2h3.3c0,0,2.3,3.7,2.7,4.3
	c0.3,0.5,0.6,0.7,1,0.9c0.3,0.1,0.7,0.2,1.1,0.2c0.5,0,1.5,0,1.5,0S70.4,36.7,70.4,35.9"/>
<path class="st0" d="M165.5,28.5c-0.6,0.8-1.8,0.8-2.8,0.8h-1.6c-0.9,0.1-1.5,0.7-1.5,0.7V22h3c0.3,0,0.7,0,0.9,0
	c0.6,0,1.5,0.2,1.9,0.6c0.7,0.8,0.7,1.8,0.7,2.9v0.1C166.2,27,166,28,165.5,28.5 M169.6,35.9c0-0.8-0.2-1.1-0.2-1.1h-0.6
	c-0.2,0-0.5,0-0.7-0.2c-0.3-0.2-0.4-0.4-0.6-0.8c-0.3-0.4-1.6-2.7-1.6-2.7c1.1-0.3,2-0.8,2.7-2.2c0.4-0.8,0.5-2.1,0.5-3.2
	c0-1.1-0.1-3.3-1.1-4.4c-0.8-0.9-2-1.5-4.5-1.5h-6.6v16.9c0,0,0.4,0.3,1.4,0.3c1,0,1.4-0.3,1.4-0.3v-5.2h3.3c0,0,2.3,3.7,2.7,4.3
	c0.3,0.5,0.6,0.7,1,0.9c0.3,0.1,0.7,0.2,1.1,0.2c0.5,0,1.5,0,1.5,0S169.6,36.7,169.6,35.9"/>
<path class="st0" d="M101,19.8H90.5l0,16.9c0,0,0.4,0.3,1.4,0.3c1,0,1.4-0.3,1.4-0.3l0-7.4h6c0,0,0.2-0.3,0.2-1.1
	c0-0.8-0.2-1.1-0.2-1.1h-4.6c-0.9,0.1-1.5,0.7-1.5,0.7V22l7.7,0c0,0,0.2-0.3,0.2-1.1C101.2,20.1,101,19.8,101,19.8"/>
<path class="st0" d="M54.5,19.8H41.7c0,0-0.2,0.3-0.2,1.1c0,0.8,0.2,1.1,0.2,1.1h5v14.7c0,0,0.4,0.3,1.4,0.3c1,0,1.4-0.3,1.4-0.3V22
	h5c0,0,0.2-0.3,0.2-1.1C54.7,20.1,54.5,19.8,54.5,19.8"/>
<path class="st0" d="M214.6,19.8H202c0,0-0.2,0.3-0.2,1.1c0,0.8,0.2,1.1,0.2,1.1h5v14.7c0,0,0.4,0.3,1.4,0.3c1,0,1.4-0.3,1.4-0.3V22
	h4.7c0,0,0.2-0.3,0.2-1.1C214.8,20.1,214.6,19.8,214.6,19.8"/>
<path class="st0" d="M154.1,35.9c0-0.8-0.2-1.1-0.2-1.1h-8.3v-5.5h6.6c0,0,0.2-0.3,0.2-1.1c0-0.8-0.2-1.1-0.2-1.1h-5.1
	c-0.9,0.1-1.5,0.7-1.5,0.7V22l7.9,0c0,0,0.2-0.3,0.2-1.1c0-0.8-0.2-1.1-0.2-1.1l-10.7,0v17.1l11.1,0
	C153.9,36.9,154.1,36.7,154.1,35.9"/>
<path class="st0" d="M199.7,35.9c0-0.8-0.2-1.1-0.2-1.1h-8.3v-5.5h6.6c0,0,0.2-0.3,0.2-1.1c0-0.8-0.2-1.1-0.2-1.1h-5.1
	c-0.9,0.1-1.5,0.7-1.5,0.7V22l7.9,0c0,0,0.2-0.3,0.2-1.1c0-0.8-0.2-1.1-0.2-1.1l-10.7,0v17.1l11.1,0
	C199.4,36.9,199.7,36.7,199.7,35.9"/>
<path class="st0" d="M104.4,20.1c0,0,0.4-0.3,1.4-0.3c1,0,1.4,0.3,1.4,0.3v16.6c0,0-0.4,0.3-1.4,0.3c-1,0-1.4-0.3-1.4-0.3V20.1z"/>
<path class="st0" d="M111.2,36.7c0,0,0.4,0.3,1.4,0.3c1,0,1.4-0.3,1.4-0.3v-7.4h1.8c0,0,3.7,5.9,4.1,6.6c0.3,0.5,0.6,0.7,1,0.9
	c0.3,0.1,0.7,0.2,1.1,0.2h1.5c0,0,0.2-0.3,0.2-1.1c0-0.8-0.2-1.1-0.2-1.1h-0.6c-0.2,0-0.5,0-0.7-0.2c-0.3-0.2-0.4-0.4-0.6-0.8
	c-0.3-0.4-3.6-5.7-3.6-5.7l5.3-8.3h-3l-4.8,7.5H114v-7.2c0,0-0.4-0.3-1.4-0.3c-1,0-1.4,0.3-1.4,0.3V36.7z"/>
<path class="st0" d="M172.7,36.7c0,0,0.4,0.3,1.4,0.3c1,0,1.4-0.3,1.4-0.3v-7.4h1.8c0,0,3.7,5.9,4.1,6.6c0.3,0.5,0.6,0.7,1,0.9
	c0.3,0.1,0.7,0.2,1.1,0.2h1.5c0,0,0.2-0.3,0.2-1.1c0-0.8-0.2-1.1-0.2-1.1h-0.6c-0.2,0-0.5,0-0.7-0.2c-0.3-0.2-0.4-0.4-0.6-0.8
	c-0.3-0.4-3.6-5.7-3.6-5.7l5.3-8.3h-3l-4.8,7.5h-1.7v-7.2c0,0-0.4-0.3-1.4-0.3c-1,0-1.4,0.3-1.4,0.3V36.7z"/>
<path class="st0" d="M139.6,23.5c0.1-1,0.1-2.5,0.1-3.4c0,0-0.4-0.3-1.5-0.3c-1.1,0-1.5,0.3-1.5,0.3c0,1-0.1,2.5-0.2,4.2
	c-0.1,1.5-0.4,3.1-1,4.6c-0.7,1.9-2.5,5.1-2.5,5.1h-0.3c0,0-1.3-2.3-2.5-5.1c-0.4-0.9-1-3.5-1-4.6c-0.1-1.7-0.2-3.3-0.2-4.2
	c0,0-0.4-0.3-1.5-0.3c-1.1,0-1.5,0.3-1.5,0.3c0,0.9,0,2.4,0.1,3.4c0.1,0.9,0.3,2.8,0.8,4.1c1,2.8,4.7,9.3,4.7,9.3h2.4
	c0,0,3.8-6.5,4.7-9.3C139.3,26.4,139.5,24.8,139.6,23.5"/>
<path class="st0" d="M80.3,22.7c-0.4,0.8-1.3,2.5-1.8,3.5c-0.6,1.4-1.2,3.2-1.6,4.8c0,0,0.6-0.6,1.5-0.7h5.3c-0.3-1.5-0.9-2.9-1.4-4
	c-0.5-1.2-1.4-2.7-1.8-3.5H80.3z M84.6,36.7c0-1.1-0.3-4.3-0.3-4.3h-7.5c0,0-0.3,3.1-0.3,4.3c0,0-0.3,0.3-1.4,0.3s-1.6-0.3-1.6-0.3
	c0-0.3,0.1-2.6,0.3-4.1c0.5-3.4,2-6,2.3-6.7c0.4-0.8,2.1-4.2,3.3-6h2.3c1.1,1.6,2.9,5.2,3.3,6c0.4,0.8,1.7,3.7,2.1,6.7
	c0.2,1.5,0.3,3.3,0.2,4.1c0,0-0.3,0.3-1.4,0.3C84.9,36.9,84.6,36.7,84.6,36.7"/>
<path class="st0" d="M15.7,45.1c10,0,14.6-7.4,14.9-9.6c-1.6,2.4-7.8,5.9-14.9,5.9c-7,0-13.2-3.6-14.9-5.9
	C1.1,37.7,5.6,45.1,15.7,45.1"/>
<path class="st0" d="M15.7,1.4c-0.2,0-0.4,0.2-0.4,0.4c0,0.2,0.2,0.4,0.4,0.4C15.9,2.1,16,2,16,1.8C16,1.5,15.9,1.4,15.7,1.4"/>
<path class="st0" d="M15.7,7.2"/>
<path class="st0" d="M17.8,7.4c0-0.1,0.1-0.1,0.2-0.1c2.5,1,4.7,2.8,6.2,4.6c1,1.2,1.6,2.7,1.4,4c-0.2,1.1-1.2,1.9-2.3,1.7
	c-1.1-0.2-1.8-1.2-1.7-2.3c0.1-1.2,1.3-1.7,1.3-1.7C22,10.5,19.8,8.5,17.8,7.4"/>
<path class="st0" d="M13.5,7.4c0-0.1-0.1-0.1-0.2-0.1c-2.5,1-4.7,2.8-6.2,4.6c-1,1.2-1.6,2.7-1.4,4C6,16.9,7,17.7,8,17.5
	c1.1-0.2,1.8-1.2,1.7-2.3c-0.1-1.2-1.3-1.7-1.3-1.7C9.3,10.5,11.5,8.5,13.5,7.4"/>
<path class="st0" d="M15.4,8c-0.6,2-1.8,5.9-1.8,7.1c0,1.2,0.8,2.2,2,2.2c1.2,0,2-1,2-2.2c0-1.2-1.2-5.2-1.8-7.1
	C15.8,7.9,15.5,7.9,15.4,8"/>
<path class="st0" d="M18.5,23.8c1.5,0,6.6,0.2,6.6,0.2c1.8-0.6,2.8-1.8,3.1-4.1c0,0-5.8-0.3-12.5-0.3S3.2,19.8,3.2,19.8
	c0.3,2.3,1.2,3.6,3.1,4.1c0,0,5.1-0.2,6.6-0.2v11.7c0,0.6,1.3,1.4,2.8,1.4c1.5,0,2.8-0.8,2.8-1.4v-8.8c-0.6-2-2.3-2.9-2.3-3
	L18.5,23.8z"/>
<path class="st0" d="M15.7,1c0.3,0,0.5-0.2,0.5-0.5c0-0.3-0.2-0.5-0.5-0.5c-0.3,0-0.5,0.2-0.5,0.5C15.1,0.8,15.4,1,15.7,1"/>
<path class="st0" d="M14.4,2.3c0.3,0,0.5-0.2,0.5-0.5c0-0.3-0.2-0.5-0.5-0.5c-0.3,0-0.5,0.2-0.5,0.5C13.9,2,14.1,2.3,14.4,2.3"/>
<path class="st0" d="M16.9,2.3c0.3,0,0.5-0.2,0.5-0.5c0-0.3-0.2-0.5-0.5-0.5c-0.3,0-0.5,0.2-0.5,0.5C16.4,2,16.6,2.3,16.9,2.3"/>
<path class="st0" d="M4.2,30.9c0,0-0.8-3.2-3.6-3c-1.1,2.1-0.6,4.2,0.7,6.2c1.2,1.8,4.1,3.7,6.1,4C7.4,38,2.9,34.8,4.2,30.9"/>
<path class="st0" d="M27.1,30.9c0,0,0.8-3.2,3.6-3c1.1,2.1,0.6,4.2-0.7,6.2c-1.2,1.8-4.1,3.7-6.1,4C23.9,38,28.4,34.8,27.1,30.9"/>
<path class="st0" d="M15.7,3.5c0.3,0,0.5-0.2,0.5-0.5c0-0.3-0.2-0.5-0.5-0.5c-0.3,0-0.5,0.2-0.5,0.5C15.1,3.3,15.4,3.5,15.7,3.5"/>
<path class="st0" d="M15.7,6.6C16.4,6.6,17,6,17,5.2c0-0.8-0.6-1.4-1.4-1.4c-0.8,0-1.4,0.6-1.4,1.4C14.3,6,14.9,6.6,15.7,6.6"/>
<path class="st0" d="M31.3,12.4c-2.3-2.6-6.7-4.9-12.5-6c-0.1,0-0.1,0.1-0.1,0.2c5.5,1.4,8.3,3.5,11,6.4c-0.8,0.2-1.4,0.8-1.8,1.6
	c-0.5,1.3,0.1,2.6,1.5,3.3L31.3,12.4z"/>
<path class="st0" d="M0,12.4c2.3-2.6,6.7-4.9,12.5-6c0.1,0,0.1,0.1,0.1,0.2C7.1,8,4.3,10.1,1.6,13c0.8,0.2,1.4,0.8,1.8,1.6
	c0.5,1.3-0.1,2.6-1.5,3.3L0,12.4z"/>
</svg>
