<?xml version="1.0" encoding="utf-8"?>
<!-- Generator: Adobe Illustrator 21.1.0, SVG Export Plug-In . SVG Version: 6.00 Build 0)  -->
<svg version="1.1" id="Lager_1" xmlns="http://www.w3.org/2000/svg" xmlns:xlink="http://www.w3.org/1999/xlink" x="0px" y="0px"
	 width="120px" height="25px" viewBox="0 0 120 25" style="enable-background:new 0 0 120 25;" xml:space="preserve">
<style type="text/css">
	.st0{fill:#FFFFFF;}
</style>
<g>
	<path class="st0" d="M38.5,19.1c0-0.5-0.2-0.7-0.2-0.7H38c-0.2,0-0.3,0-0.4-0.1c-0.2-0.1-0.2-0.2-0.4-0.5s-1-1.6-1-1.6
		c0.6-0.2,1.2-0.5,1.6-1.3c0.2-0.5,0.3-1.3,0.3-1.9c0-0.7-0.1-2-0.7-2.6c-0.5-0.5-1.2-0.9-2.6-0.9h-3.9v9.9c0,0,0.2,0.2,0.8,0.2
		c0.6,0,0.8-0.2,0.8-0.2v-3h2c0,0,1.3,2.2,1.6,2.5c0.2,0.3,0.4,0.5,0.6,0.5c0.2,0.1,0.4,0.1,0.7,0.1s0.9,0,0.9,0
		S38.5,19.5,38.5,19.1 M36.1,14.8c-0.4,0.5-1.1,0.5-1.7,0.5h-1c-0.5,0.1-0.9,0.4-0.9,0.4v-4.8h1.8c0.2,0,0.4,0,0.5,0
		c0.4,0,0.9,0.1,1.1,0.4c0.4,0.5,0.5,1.1,0.5,1.7v0C36.5,13.9,36.4,14.4,36.1,14.8"/>
	<path class="st0" d="M94.3,19.1c0-0.5-0.2-0.7-0.2-0.7h-0.3c-0.2,0-0.3,0-0.4-0.1c-0.2-0.1-0.2-0.2-0.4-0.5c-0.2-0.3-1-1.6-1-1.6
		c0.6-0.2,1.2-0.5,1.6-1.3c0.2-0.5,0.3-1.3,0.3-1.9c0-0.7-0.1-2-0.7-2.6c-0.5-0.5-1.2-0.9-2.6-0.9h-3.9v9.9c0,0,0.2,0.2,0.8,0.2
		c0.6,0,0.8-0.2,0.8-0.2v-3h2c0,0,1.3,2.2,1.6,2.5c0.2,0.3,0.4,0.5,0.6,0.5c0.2,0.1,0.4,0.1,0.7,0.1c0.3,0,0.9,0,0.9,0
		S94.3,19.5,94.3,19.1 M91.9,14.8c-0.4,0.5-1.1,0.5-1.7,0.5h-1c-0.5,0.1-0.9,0.4-0.9,0.4v-4.8h1.8c0.2,0,0.5,0,0.5,0
		c0.4,0,0.9,0.1,1.1,0.4c0.4,0.5,0.5,1.1,0.5,1.7v0C92.3,13.9,92.2,14.4,91.9,14.8"/>
	<path class="st0" d="M55.5,9.6h-6.2v9.9c0,0,0.2,0.2,0.8,0.2s0.8-0.2,0.8-0.2v-4.4h3.6c0,0,0.1-0.2,0.1-0.6S54.5,14,54.5,14h-2.7
		c-0.5,0.1-0.9,0.4-0.9,0.4v-3.5h4.6c0,0,0.1-0.2,0.1-0.6C55.6,9.8,55.5,9.6,55.5,9.6"/>
	<path class="st0" d="M29.5,9.6H22c0,0-0.2,0.2-0.2,0.6s0.2,0.6,0.2,0.6h3v8.6c0,0,0.2,0.2,0.8,0.2s0.8-0.2,0.8-0.2v-8.6h2.9
		c0,0,0.2-0.2,0.2-0.6S29.5,9.6,29.5,9.6"/>
	<path class="st0" d="M119.8,9.6h-7.5c0,0-0.1,0.2-0.1,0.6s0.1,0.6,0.1,0.6h2.9v8.6c0,0,0.2,0.2,0.8,0.2c0.6,0,0.8-0.2,0.8-0.2v-8.6
		h2.9c0,0,0.2-0.2,0.2-0.6C120,9.8,119.8,9.6,119.8,9.6"/>
	<path class="st0" d="M85.3,19.1c0-0.5-0.1-0.6-0.1-0.6h-4.9v-3.2h3.9c0,0,0.2-0.2,0.2-0.6S84.2,14,84.2,14h-3
		c-0.5,0.1-0.9,0.4-0.9,0.4V11H85c0,0,0.2-0.2,0.2-0.6S85,9.7,85,9.7h-6.3v10.1h6.5C85.2,19.7,85.3,19.5,85.3,19.1"/>
	<path class="st0" d="M111.6,19.1c0-0.5-0.2-0.6-0.2-0.6h-4.9v-3.2h3.9c0,0,0.2-0.2,0.2-0.6s-0.2-0.6-0.2-0.6h-3
		c-0.5,0.1-0.9,0.4-0.9,0.4V11h4.6c0,0,0.2-0.2,0.2-0.6s-0.2-0.6-0.2-0.6h-6.3v10.1h6.6C111.5,19.7,111.6,19.5,111.6,19.1"/>
	<path class="st0" d="M57.1,9.8c0,0,0.2-0.2,0.8-0.2s0.8,0.2,0.8,0.2v9.7c0,0-0.2,0.2-0.8,0.2s-0.8-0.2-0.8-0.2V9.8z"/>
	<path class="st0" d="M61.1,19.5c0,0,0.2,0.2,0.8,0.2s0.8-0.2,0.8-0.2v-4.4h1.1c0,0,2.2,3.5,2.4,3.9c0.2,0.3,0.4,0.5,0.6,0.6
		s0.4,0.1,0.7,0.1h0.9c0,0,0.2-0.2,0.2-0.7s-0.2-0.7-0.2-0.7h-0.3c-0.2,0-0.3,0-0.4-0.1c-0.2-0.1-0.2-0.2-0.4-0.5s-2.1-3.4-2.1-3.4
		l3.1-4.9h-1.7l-2.8,4.4h-1V9.7c0,0-0.2-0.2-0.8-0.2s-0.8,0.2-0.8,0.2L61.1,19.5L61.1,19.5z"/>
	<path class="st0" d="M96.2,19.5c0,0,0.2,0.2,0.8,0.2c0.6,0,0.8-0.2,0.8-0.2v-4.4h1.1c0,0,2.2,3.5,2.4,3.9c0.2,0.3,0.4,0.5,0.6,0.6
		s0.4,0.1,0.7,0.1h0.9c0,0,0.2-0.2,0.2-0.7s-0.2-0.7-0.2-0.7h-0.3c-0.2,0-0.3,0-0.4-0.1c-0.2-0.1-0.2-0.2-0.4-0.5s-2.1-3.4-2.1-3.4
		l3.1-4.9h-1.7l-2.8,4.4h-1V9.7c0,0-0.2-0.2-0.8-0.2c-0.6,0-0.8,0.2-0.8,0.2L96.2,19.5L96.2,19.5z"/>
	<path class="st0" d="M77.1,11.8c0.1-0.6,0.1-1.5,0.1-2c0,0-0.2-0.2-0.9-0.2s-0.9,0.2-0.9,0.2c0,0.6-0.1,1.5-0.1,2.5
		c-0.1,0.9-0.3,1.8-0.6,2.7c-0.4,1.1-1.4,3-1.4,3H73c0,0-0.8-1.4-1.4-3c-0.3-0.6-0.6-2-0.6-2.7c-0.1-1-0.1-1.9-0.1-2.5
		c0,0-0.2-0.2-0.9-0.2c-0.7,0-0.9,0.2-0.9,0.2c0,0.6,0,1.4,0.1,2c0.1,0.5,0.2,1.6,0.5,2.4c0.6,1.6,2.8,5.5,2.8,5.5h1.4
		c0,0,2.2-3.8,2.8-5.5C76.9,13.5,77,12.6,77.1,11.8"/>
	<path class="st0" d="M46.1,19.5c0-0.6-0.2-2.5-0.2-2.5h-4.4c0,0-0.2,1.8-0.2,2.5c0,0-0.2,0.2-0.8,0.2s-0.8-0.2-0.8-0.2
		c0-0.2,0.1-1.5,0.2-2.4c0.3-2,1-3.5,1.2-4c0.3-0.5,1.2-2.5,1.9-3.6h1.4c0.7,1,1.7,3.1,1.9,3.6s1,2.2,1.2,4c0.1,0.9,0.2,1.9,0.2,2.4
		c0,0-0.2,0.2-0.8,0.2C46.3,19.7,46.1,19.5,46.1,19.5 M43.7,11.3c-0.3,0.5-0.8,1.5-1,2.1c-0.4,0.8-0.7,1.9-0.9,2.8
		c0,0,0.4-0.4,0.9-0.4h3.1c-0.2-0.9-0.6-1.7-0.8-2.4c-0.3-0.7-0.8-1.6-1-2.1C44,11.3,43.7,11.3,43.7,11.3z"/>
	<path class="st0" d="M8.2,23.5c5.2,0,7.6-3.9,7.7-5c-0.9,1.2-4.1,3.1-7.7,3.1s-6.9-1.9-7.8-3.1C0.6,19.6,2.9,23.5,8.2,23.5"/>
	<path class="st0" d="M8.2,0.7C8.1,0.7,8,0.8,8,0.9s0.1,0.2,0.2,0.2c0.1,0,0.2-0.1,0.2-0.2S8.3,0.7,8.2,0.7"/>
	<path class="st0" d="M8.2,3.7"/>
	<path class="st0" d="M9.2,3.9c0-0.1,0.1-0.1,0.1-0.1c1.3,0.6,2.4,1.5,3.2,2.4c0.5,0.6,0.8,1.4,0.7,2.1c-0.1,0.6-0.6,1-1.2,0.9
		c-0.6-0.1-1-0.6-0.9-1.2s0.7-0.9,0.7-0.9C11.5,5.4,10.3,4.4,9.2,3.9"/>
	<path class="st0" d="M7.1,3.9C7.1,3.8,7,3.8,7,3.8C5.7,4.3,4.5,5.2,3.8,6.1C3.3,6.8,2.9,7.5,3,8.2c0.1,0.6,0.6,1,1.2,0.9
		C4.8,9,5.2,8.5,5.1,8c0-0.6-0.6-0.9-0.6-0.9C4.8,5.4,6,4.4,7.1,3.9"/>
	<path class="st0" d="M8,4.1c-0.3,1-0.9,3.1-0.9,3.7s0.5,1.1,1.1,1.1s1.1-0.5,1.1-1.1s-0.7-2.7-1-3.7C8.2,4.1,8.1,4.1,8,4.1"/>
	<path class="st0" d="M9.6,12.3c0.8,0,3.5,0.1,3.5,0.1c1-0.3,1.4-1,1.6-2.1c0,0-3-0.2-6.5-0.2s-6.5,0.2-6.5,0.2
		c0.2,1.2,0.7,1.9,1.6,2.1c0,0,2.6-0.1,3.5-0.1v6.1c0,0.3,0.7,0.7,1.5,0.7s1.5-0.4,1.5-0.7v-4.6c-0.3-1-1.2-1.5-1.2-1.6L9.6,12.3z"
		/>
	<path class="st0" d="M8.2,0.5c0.2,0,0.3-0.1,0.3-0.3S8.3,0,8.2,0S7.9,0.1,7.9,0.3C7.9,0.4,8,0.5,8.2,0.5"/>
	<path class="st0" d="M7.5,1.2c0.2,0,0.3-0.1,0.3-0.3S7.7,0.7,7.5,0.7S7.3,0.8,7.3,0.9S7.4,1.2,7.5,1.2"/>
	<path class="st0" d="M8.8,1.2C8.9,1.2,9,1.1,9,0.9S8.9,0.7,8.8,0.7S8.5,0.8,8.5,0.9S8.6,1.2,8.8,1.2"/>
	<path class="st0" d="M2.2,16c0,0-0.4-1.6-1.9-1.6c-0.6,1.1-0.3,2.2,0.4,3.2c0.6,0.9,2.1,1.9,3.2,2.1C3.9,19.7,1.5,18.1,2.2,16"/>
	<path class="st0" d="M14.1,16c0,0,0.4-1.6,1.9-1.6c0.6,1.1,0.3,2.2-0.4,3.2c-0.6,1-2.1,1.9-3.2,2.1C12.4,19.7,14.8,18.1,14.1,16"/>
	<path class="st0" d="M8.2,1.8c0.2,0,0.3-0.1,0.3-0.3S8.3,1.3,8.2,1.3S7.9,1.4,7.9,1.5C7.9,1.7,8,1.8,8.2,1.8"/>
	<path class="st0" d="M8.2,3.4c0.4,0,0.7-0.3,0.7-0.7S8.6,2,8.2,2C7.8,2,7.5,2.3,7.5,2.7C7.4,3,7.8,3.4,8.2,3.4"/>
	<path class="st0" d="M16.3,6.4C15.1,5,12.8,3.9,9.8,3.3c-0.1,0-0.1,0.1-0.1,0.1c2.8,0.8,4.4,1.8,5.7,3.4c-0.4,0.1-0.8,0.4-0.9,0.9
		c-0.3,0.7,0.1,1.4,0.8,1.7L16.3,6.4z"/>
	<path class="st0" d="M0,6.4C1.2,5,3.5,3.9,6.5,3.3c0.1,0,0.1,0.1,0.1,0.1C3.7,4.2,2.2,5.3,0.8,6.8c0.4,0.1,0.8,0.4,0.9,0.9
		C2,8.3,1.7,9,1,9.4L0,6.4z"/>
</g>
</svg>
